<?xml version="1.0" standalone="no"?><!DOCTYPE svg PUBLIC "-//W3C//DTD SVG 1.1//EN" "http://www.w3.org/Graphics/SVG/1.1/DTD/svg11.dtd"><svg xmlns="http://www.w3.org/2000/svg" version="1.1" width="613.329" height="553.682" xmlns:xlink="http://www.w3.org/1999/xlink" xlink="http://www.w3.org/1999/xlink" style="position:relative;overflow:hidden;" viewBox="156.166 97.833 613.329 553.682"><defs><filter id="2540ef4f-f764-477c-8d91-674e21a9180b" x="-0.5" y="-0.5" width="2" height="2"><feFlood flood-color="#000" flood-opacity="0.6" result="flood"/><feComposite in="flood" in2="SourceAlpha" operator="in" result="mask"/><feGaussianBlur in="mask" stdDeviation="2"/><feOffset dx="1.25" dy="1.25" result="oEffect0"/><feMerge><feMergeNode in="oEffect0"/><feMergeNode in="SourceGraphic"/></feMerge></filter></defs><g><g width="100" height="50.333" transform="scale(1,1) translate(558.833,183.833)"><g stroke="#7F7F7F" stroke-opacity="1" stroke-width="1" stroke-dasharray="none" width="100" height="50.333" transform="scale(1,1) translate(0,0)" fill="url(#af4c8d0f-f817-4283-88f6-7af4828f22b9)" filter="url(#2540ef4f-f764-477c-8d91-674e21a9180b)"><linearGradient id="af4c8d0f-f817-4283-88f6-7af4828f22b9" x1="50" y1="0" x2="50" y2="50.333" gradientUnits="userSpaceOnUse"><stop offset="0%" style="stop-color:#92B0CF;stop-opacity:1;"/><stop offset="100%" style="stop-color:#8CA8CD;stop-opacity:1;"/></linearGradient><rect width="100" height="50.333"/></g><g width="95" height="45.33333333333333" transform="scale(1,1) translate(2.5,2.5)"><text width="95" height="15.624999046325684" transform="scale(1,1) translate(0,14.854167143503823)" xml:space="preserve"><tspan xml:space="preserve" text-rendering="optimizeSpeed" font-size="13.88888888888889" font-weight="normal" font-style="normal" fill="#333333" opacity="1" x="3.128" text-anchor="start" y="12.5" textLength="88.74314880371094" style="font-family: Arial, Helvetica Neue, Helvetica, sans-serif;">Real Numbers</tspan></text></g></g><g width="201.156" height="50.5" transform="scale(1,1) translate(508.255,234.167)"><g fill="#545454" stroke="#545454" stroke-opacity="1" transform="scale(1,1) translate(0,0)"><path fill="none" stroke-width="1" stroke-dasharray="none" d="M100.578,0 L100.578,0 M100.578,0 L100.578,0 M100.578,0 L100.578,0 M100.578,0 L0,50.5 M100.578,0 L201.156,50.5"/><g><g stroke-dasharray="none"><path d="M97.578,-3L103.578,-3L103.578,3L97.578,3z" stroke-width="0" fill="none"/></g></g></g></g><g width="109.167" height="55" transform="scale(1,1) translate(654.828,284.667)"><g stroke="#7F7F7F" stroke-opacity="1" stroke-width="1" stroke-dasharray="none" width="109.167" height="55" transform="scale(1,1) translate(0,0)" fill="#C4D5E6" fill-opacity="1" filter="url(#2540ef4f-f764-477c-8d91-674e21a9180b)"><rect width="109.167" height="55"/></g><g width="104.16666666666666" height="50" transform="scale(1,1) translate(2.5,2.5)"><text width="104.16666666666666" height="31.249998092651367" transform="scale(1,1) translate(0,9.375000953674316)" xml:space="preserve"><tspan xml:space="preserve" text-rendering="optimizeSpeed" font-size="13.88888888888889" font-weight="normal" font-style="normal" fill="#333333" opacity="1" x="23.143" text-anchor="start" y="12.5" textLength="54.02281951904297" style="font-family: Arial, Helvetica Neue, Helvetica, sans-serif;">Irrational</tspan><tspan xml:space="preserve" text-rendering="optimizeSpeed" font-size="13.88888888888889" font-weight="normal" font-style="normal" fill="#333333" opacity="1" x="23.919" text-anchor="start" y="28.125" textLength="56.32807922363281" style="font-family: Arial, Helvetica Neue, Helvetica, sans-serif;">Numbers</tspan></text></g></g><g width="101.312" height="50.333" transform="scale(1,1) translate(457.599,284.667)"><g stroke="#7F7F7F" stroke-opacity="1" stroke-width="1" stroke-dasharray="none" width="101.312" height="50.333" transform="scale(1,1) translate(0,0)" fill="#C4D5E6" fill-opacity="1" filter="url(#2540ef4f-f764-477c-8d91-674e21a9180b)"><rect width="101.312" height="50.333"/></g><g width="96.3119658119658" height="45.33333333333333" transform="scale(1,1) translate(2.5,2.5)"><text width="96.3119658119658" height="31.249998092651367" transform="scale(1,1) translate(0,7.041667620340981)" xml:space="preserve"><tspan xml:space="preserve" text-rendering="optimizeSpeed" font-size="13.88888888888889" font-weight="normal" font-style="normal" fill="#333333" opacity="1" x="26.158" text-anchor="start" y="12.5" textLength="40.13746643066406" style="font-family: Arial, Helvetica Neue, Helvetica, sans-serif;">Ration</tspan><tspan xml:space="preserve" text-rendering="optimizeSpeed" font-size="13.88888888888889" font-weight="normal" font-style="normal" fill="#333333" opacity="1" x="19.992" text-anchor="start" y="28.125" textLength="56.328086853027344" style="font-family: Arial, Helvetica Neue, Helvetica, sans-serif;">Numbers</tspan></text></g></g><g width="165.332" height="28.125" transform="scale(1,1) translate(533.251,109.833)"><g stroke="#000000" stroke-opacity="1" stroke-width="0" stroke-dasharray="none" width="165.332" height="28.125" transform="scale(1,1) translate(0,0)" fill="none"><rect width="165.332" height="28.125"/></g><g width="165.33203125" height="28.124998092651367" transform="scale(1,1) translate(0,0)"><text width="165.33203125" height="28.124998092651367" transform="scale(1,1) translate(0,0)" xml:space="preserve"><tspan xml:space="preserve" text-rendering="optimizeSpeed" font-size="25" font-weight="bold" font-style="normal" fill="#333333" opacity="1" x="0" text-anchor="start" y="22.917" textLength="165.33203125" style="font-family: Arial, Helvetica Neue, Helvetica, sans-serif;">Real numbers</tspan></text></g></g><g width="192.146" height="50.5" transform="scale(1,1) translate(392.375,335)"><g fill="#545454" stroke="#545454" stroke-opacity="1" transform="scale(1,1) translate(0,0)"><path fill="none" stroke-width="1" stroke-dasharray="none" d="M96.073,0 L96.073,0 M96.073,0 L96.073,0 M96.073,0 L96.073,0 M96.073,0 L0,50.5 M96.073,0 L192.146,50.5"/><g><g stroke-dasharray="none"><path d="M93.073,-3L99.073,-3L99.073,3L93.073,3z" stroke-width="0" fill="none"/></g></g></g></g><g width="103.063" height="51.875" transform="scale(1,1) translate(532.989,385.5)"><g stroke="#7F7F7F" stroke-opacity="1" stroke-width="1" stroke-dasharray="none" width="103.063" height="51.875" transform="scale(1,1) translate(0,0)" fill="#E1E8F2" fill-opacity="1" filter="url(#2540ef4f-f764-477c-8d91-674e21a9180b)"><rect width="103.063" height="51.875"/></g><g width="98.0629082231332" height="46.87499713897705" transform="scale(1,1) translate(2.5,2.5)"><text width="98.0629082231332" height="46.87499713897705" transform="scale(1,1) translate(0,0)" xml:space="preserve"><tspan xml:space="preserve" text-rendering="optimizeSpeed" font-size="13.88888888888889" font-weight="normal" font-style="normal" fill="#333333" opacity="1" x="21.63" text-anchor="start" y="12.5" textLength="50.944740295410156" style="font-family: Arial, Helvetica Neue, Helvetica, sans-serif;">Rational</tspan><tspan xml:space="preserve" text-rendering="optimizeSpeed" font-size="13.88888888888889" font-weight="normal" font-style="normal" fill="#333333" opacity="1" x="6.582" text-anchor="start" y="28.125" textLength="81.04106903076172" style="font-family: Arial, Helvetica Neue, Helvetica, sans-serif;">numbers that</tspan><tspan xml:space="preserve" text-rendering="optimizeSpeed" font-size="13.88888888888889" font-weight="normal" font-style="normal" fill="#333333" opacity="1" x="0.789" text-anchor="start" y="43.75" textLength="96.48583984375" style="font-family: Arial, Helvetica Neue, Helvetica, sans-serif;">are not integers</tspan></text></g></g><g width="103.063" height="51.875" transform="scale(1,1) translate(340.843,385.5)"><g stroke="#7F7F7F" stroke-opacity="1" stroke-width="1" stroke-dasharray="none" width="103.063" height="51.875" transform="scale(1,1) translate(0,0)" fill="#E1E8F2" fill-opacity="1" filter="url(#2540ef4f-f764-477c-8d91-674e21a9180b)"><rect width="103.063" height="51.875"/></g><g width="98.0629082231332" height="46.87499713897705" transform="scale(1,1) translate(2.5,2.5)"><text width="98.0629082231332" height="46.87499713897705" transform="scale(1,1) translate(0,0)" xml:space="preserve"><tspan xml:space="preserve" text-rendering="optimizeSpeed" font-size="13.88888888888889" font-weight="normal" font-style="normal" fill="#333333" opacity="1" x="23.946" text-anchor="start" y="12.5" textLength="50.171817779541016" style="font-family: Arial, Helvetica Neue, Helvetica, sans-serif;">Integers</tspan><tspan xml:space="preserve" text-rendering="optimizeSpeed" font-size="13.88888888888889" font-weight="normal" font-style="normal" fill="#333333" opacity="1" x="0" text-anchor="start" y="28.125" textLength="95.69254302978516" style="font-family: Arial, Helvetica Neue, Helvetica, sans-serif;">{..., -3, -2, -1, 0,</tspan><tspan xml:space="preserve" text-rendering="optimizeSpeed" font-size="13.88888888888889" font-weight="normal" font-style="normal" fill="#333333" opacity="1" x="15.84" text-anchor="start" y="43.75" textLength="66.38272857666016" style="font-family: Arial, Helvetica Neue, Helvetica, sans-serif;">1, 2, 3, ... }</tspan></text></g></g><g width="0" height="50" transform="scale(1,1) translate(709.412,339.667)"><g fill="#545454" stroke="#545454" stroke-opacity="1" transform="scale(1,1) translate(0,0)"><path fill="none" stroke-width="1" stroke-dasharray="none" d="M0,0"/></g></g><g width="180.229" height="50.5" transform="scale(1,1) translate(302.26,437.375)"><g fill="#545454" stroke="#545454" stroke-opacity="1" transform="scale(1,1) translate(0,0)"><path fill="none" stroke-width="1" stroke-dasharray="none" d="M90.115,0 L90.115,0 M90.115,0 L90.115,0 M90.115,0 L90.115,0 M90.115,0 L0,50.5 M90.115,0 L180.229,50.5"/><g><g stroke-dasharray="none"><path d="M87.115,-3L93.115,-3L93.115,3L87.115,3z" stroke-width="0" fill="none"/></g></g></g></g><g width="103.063" height="51.875" transform="scale(1,1) translate(430.958,487.875)"><g stroke="#7F7F7F" stroke-opacity="1" stroke-width="1" stroke-dasharray="none" width="103.063" height="51.875" transform="scale(1,1) translate(0,0)" fill="#CDC29C" fill-opacity="1" filter="url(#2540ef4f-f764-477c-8d91-674e21a9180b)"><rect width="103.063" height="51.875"/></g><g width="98.06290822313322" height="46.87499713897705" transform="scale(1,1) translate(2.5,2.5)"><text width="98.06290822313322" height="46.87499713897705" transform="scale(1,1) translate(0,0)" xml:space="preserve"><tspan xml:space="preserve" text-rendering="optimizeSpeed" font-size="13.88888888888889" font-weight="normal" font-style="normal" fill="#333333" opacity="1" x="19.701" text-anchor="start" y="12.5" textLength="54.802555084228516" style="font-family: Arial, Helvetica Neue, Helvetica, sans-serif;">Negative</tspan><tspan xml:space="preserve" text-rendering="optimizeSpeed" font-size="13.88888888888889" font-weight="normal" font-style="normal" fill="#333333" opacity="1" x="18.939" text-anchor="start" y="28.125" textLength="56.32808303833008" style="font-family: Arial, Helvetica Neue, Helvetica, sans-serif;">Numbers</tspan><tspan xml:space="preserve" text-rendering="optimizeSpeed" font-size="13.88888888888889" font-weight="normal" font-style="normal" fill="#333333" opacity="1" x="8.514" text-anchor="start" y="43.75" textLength="81.03424072265625" style="font-family: Arial, Helvetica Neue, Helvetica, sans-serif;">{-1, -2, -3, ...}</tspan></text></g></g><g width="103.063" height="51.875" transform="scale(1,1) translate(250.728,487.875)"><g stroke="#7F7F7F" stroke-opacity="1" stroke-width="1" stroke-dasharray="none" width="103.063" height="51.875" transform="scale(1,1) translate(0,0)" fill="#CDC29C" fill-opacity="1" filter="url(#2540ef4f-f764-477c-8d91-674e21a9180b)"><rect width="103.063" height="51.875"/></g><g width="98.06290822313322" height="46.87499713897705" transform="scale(1,1) translate(2.5,2.5)"><text width="98.06290822313322" height="46.87499713897705" transform="scale(1,1) translate(0,0)" xml:space="preserve"><tspan xml:space="preserve" text-rendering="optimizeSpeed" font-size="13.88888888888889" font-weight="normal" font-style="normal" fill="#333333" opacity="1" x="27.424" text-anchor="start" y="12.5" textLength="39.35777282714844" style="font-family: Arial, Helvetica Neue, Helvetica, sans-serif;">Whole</tspan><tspan xml:space="preserve" text-rendering="optimizeSpeed" font-size="13.88888888888889" font-weight="normal" font-style="normal" fill="#333333" opacity="1" x="20.867" text-anchor="start" y="28.125" textLength="56.328086853027344" style="font-family: Arial, Helvetica Neue, Helvetica, sans-serif;">Numbers</tspan><tspan xml:space="preserve" text-rendering="optimizeSpeed" font-size="13.88888888888889" font-weight="normal" font-style="normal" fill="#333333" opacity="1" x="7.731" text-anchor="start" y="43.75" textLength="82.60043334960938" style="font-family: Arial, Helvetica Neue, Helvetica, sans-serif;">{0, 1, 2, 3, ...}</tspan></text></g></g><g width="156.396" height="50.5" transform="scale(1,1) translate(224.062,539.75)"><g fill="#545454" stroke="#545454" stroke-opacity="1" transform="scale(1,1) translate(0,0)"><path fill="none" stroke-width="1" stroke-dasharray="none" d="M78.198,0 L78.198,0 M78.198,0 L78.198,0 M78.198,0 L78.198,0 M78.198,0 L0,50.5 M78.198,0 L156.396,50.5"/><g><g stroke-dasharray="none"><path d="M75.198,-3L81.198,-3L81.198,3L75.198,3z" stroke-width="0" fill="none"/></g></g></g></g><g width="100" height="50.333" transform="scale(1,1) translate(330.458,590.25)"><g stroke="#7F7F7F" stroke-opacity="1" stroke-width="1" stroke-dasharray="none" width="100" height="50.333" transform="scale(1,1) translate(0,0)" fill="#D9CFB0" fill-opacity="1" filter="url(#2540ef4f-f764-477c-8d91-674e21a9180b)"><rect width="100" height="50.333"/></g><g width="95" height="45.33333333333333" transform="scale(1,1) translate(2.5,2.5)"><text width="95" height="31.249998092651367" transform="scale(1,1) translate(0,7.041667620340981)" xml:space="preserve"><tspan xml:space="preserve" text-rendering="optimizeSpeed" font-size="13.88888888888889" font-weight="normal" font-style="normal" fill="#333333" opacity="1" x="33.225" text-anchor="start" y="12.5" textLength="28.550479888916016" style="font-family: Arial, Helvetica Neue, Helvetica, sans-serif;">Zero</tspan><tspan xml:space="preserve" text-rendering="optimizeSpeed" font-size="13.88888888888889" font-weight="normal" font-style="normal" fill="#333333" opacity="1" x="39.001" text-anchor="start" y="28.125" textLength="16.997417449951172" style="font-family: Arial, Helvetica Neue, Helvetica, sans-serif;">{0}</tspan></text></g></g><g width="110.792" height="55.765" transform="scale(1,1) translate(168.666,590.25)"><g stroke="#7F7F7F" stroke-opacity="1" stroke-width="1" stroke-dasharray="none" width="110.792" height="55.765" transform="scale(1,1) translate(0,0)" fill="#D9CFB0" fill-opacity="1" filter="url(#2540ef4f-f764-477c-8d91-674e21a9180b)"><rect width="110.792" height="55.765"/></g><g width="105.79198179754202" height="50.765297504762806" transform="scale(1,1) translate(2.5,2.5)"><text width="105.79198179754202" height="46.87499713897705" transform="scale(1,1) translate(0,1.9451501828928777)" xml:space="preserve"><tspan xml:space="preserve" text-rendering="optimizeSpeed" font-size="13.88888888888889" font-weight="normal" font-style="normal" fill="#333333" opacity="1" x="0" text-anchor="start" y="12.5" textLength="104.9472885131836" style="font-family: Arial, Helvetica Neue, Helvetica, sans-serif;">Natural Numbers</tspan><tspan xml:space="preserve" text-rendering="optimizeSpeed" font-size="13.88888888888889" font-weight="normal" font-style="normal" fill="#333333" opacity="1" x="2.728" text-anchor="start" y="28.125" textLength="100.33687591552734" style="font-family: Arial, Helvetica Neue, Helvetica, sans-serif;">positive integers</tspan><tspan xml:space="preserve" text-rendering="optimizeSpeed" font-size="13.88888888888889" font-weight="normal" font-style="normal" fill="#333333" opacity="1" x="17.386" text-anchor="start" y="43.75" textLength="67.16242980957031" style="font-family: Arial, Helvetica Neue, Helvetica, sans-serif;">{1, 2, 3, ...}</tspan></text></g></g><g width="0" height="50" transform="scale(1,1) translate(482.489,539.75)"><g fill="#545454" stroke="#545454" stroke-opacity="1" transform="scale(1,1) translate(0,0)"><path fill="none" stroke-width="1" stroke-dasharray="none" d="M0,0"/></g></g></g></svg>